<svg xmlns="http://www.w3.org/2000/svg" viewBox="0 0 100 100" width="100%" height="100%">
  <defs>
    <linearGradient id="grad-shooting-stars" x1="0%" y1="0%" x2="100%" y2="100%">
      <stop offset="0%" stop-color="#1E40AF"/>
      <stop offset="100%" stop-color="#3B82F6"/>
    </linearGradient>
  </defs>
  <path d="M50 5 C78 5, 90 18, 90 42 C90 70, 50 95, 50 95 C50 95, 10 70, 10 42 C10 18, 22 5, 50 5 Z" fill="url(#grad-shooting-stars)" stroke="#FBBF24" stroke-width="2.5"/>
  <path d="M50 10 C74 10, 84 21, 84 42 C84 66, 50 88, 50 88 C50 88, 16 66, 16 42 C16 21, 26 10, 50 10 Z" fill="none" stroke="#FBBF24" stroke-width="1" opacity="0.6"/>
  <g id="symbol"><polygon points="46,34 50,42 58,42 52,47 54,55 46,50 38,55 40,47 34,42 42,42" fill="#FBBF24"/><path d="M52 46 Q64 50 68 58" stroke="#FFFFFF" stroke-width="2" fill="none" stroke-linecap="round"/><path d="M50 48 Q60 54 62 62" stroke="#FBBF24" stroke-width="1.5" fill="none" stroke-linecap="round"/></g>
  <circle cx="50" cy="72" r="6" fill="#FFFFFF" stroke="#1E40AF" stroke-width="1.2"/>
  <polygon points="50,68 53,70 52,74 48,74 47,70" fill="#1E40AF"/>
  <text x="50" y="24" font-family="system-ui, -apple-system, sans-serif" font-size="6.5" font-weight="900" fill="#FBBF24" text-anchor="middle" letter-spacing="0.4">SHOOTING STARS</text>
  <text x="50" y="86" font-family="system-ui, -apple-system, sans-serif" font-size="4.5" font-weight="700" fill="#FBBF24" text-anchor="middle" opacity="0.9" letter-spacing="0.3">3SC IBADAN</text>
</svg>