<svg xmlns="http://www.w3.org/2000/svg" viewBox="0 0 100 100" width="100%" height="100%">
  <defs>
    <linearGradient id="grad-sunshine-stars" x1="0%" y1="0%" x2="100%" y2="100%">
      <stop offset="0%" stop-color="#EA580C"/>
      <stop offset="100%" stop-color="#1E40AF"/>
    </linearGradient>
  </defs>
  <path d="M50 5 C78 5, 90 18, 90 42 C90 70, 50 95, 50 95 C50 95, 10 70, 10 42 C10 18, 22 5, 50 5 Z" fill="url(#grad-sunshine-stars)" stroke="#FEF08A" stroke-width="2.5"/>
  <path d="M50 10 C74 10, 84 21, 84 42 C84 66, 50 88, 50 88 C50 88, 16 66, 16 42 C16 21, 26 10, 50 10 Z" fill="none" stroke="#FEF08A" stroke-width="1" opacity="0.6"/>
  <g id="symbol"><circle cx="50" cy="46" r="7" fill="#FEF08A"/><path d="M50 34 L50 37 M50 55 L50 58 M38 46 L41 46 M59 46 L62 46 M42 38 L44 40 M56 52 L58 54 M42 54 L44 52 M56 38 L58 40" stroke="#FEF08A" stroke-width="2" stroke-linecap="round"/></g>
  <circle cx="50" cy="72" r="6" fill="#FFFFFF" stroke="#EA580C" stroke-width="1.2"/>
  <polygon points="50,68 53,70 52,74 48,74 47,70" fill="#EA580C"/>
  <text x="50" y="24" font-family="system-ui, -apple-system, sans-serif" font-size="6.5" font-weight="900" fill="#FEF08A" text-anchor="middle" letter-spacing="0.4">SUNSHINE STARS</text>
  <text x="50" y="86" font-family="system-ui, -apple-system, sans-serif" font-size="4.5" font-weight="700" fill="#FEF08A" text-anchor="middle" opacity="0.9" letter-spacing="0.3">OWENA WHALES</text>
</svg>